{
.appVersion = "1342";
classes = (
{
code = "space nbspace enspace emspace space-han";
name = Spaces;
notes = "【スペース】クラス\012\012スペース、分離禁止スペース enスペース、emスペース、全角スペース";
},
{
code = "colon.full semicolon.full dot-kata";
name = Centered;
notes = "【中点】クラス\012\012：；・";
},
{
code = "whiteparenleft.full anglebracketleft blacklenticularbracketleft braceleft.full bracketleft.full cornerbracketleft dblanglebracketleft tortoiseshellbracketleft whitecornerbracketleft whitelenticularbracketleft whitesquarebracketleft whitetortoiseshellbracketleft parenleft.full quotedblleft quotedoubleprimeReversed quoteleft";
name = Opening;
notes = "【前アキ約物】クラス\012\012｟〈【｛「《〔『〖〚〘［（“〝‘\012\012※いずれも全角。";
},
{
code = "whiteparenright.full anglebracketright blacklenticularbracketright braceright.full bracketright.full cornerbracketright dblanglebracketright tortoiseshellbracketright whitecornerbracketright whitelenticularbracketright whitesquarebracketright whitetortoiseshellbracketright parenright.full lowquotedoubleprime quotedblright quotedoubleprime quoteright comma-han period-han comma.full period.full";
name = Closing;
notes = "【後アキ約物】クラス\012\012｠〉】｝」》〕』〗〛〙］）〟”〞’\012受け括弧、読点、句点、全角カンマ、全角ピリオド\012\012※いずれも全角。";
},
{
code = "colon.full.vert semicolon.full.vert dot-kata";
name = CenteredVert;
notes = "【中点】クラス\012\012：；・";
},
{
code = "whiteparenleft.full.vert anglebracketleft.vert blacklenticularbracketleft.vert braceleft.full.vert bracketleft.full.vert cornerbracketleft.vert dblanglebracketleft.vert tortoiseshellbracketleft.vert whitecornerbracketleft.vert whitelenticularbracketleft.vert whitesquarebracketleft.vert whitetortoiseshellbracketleft.vert parenleft.full.vert quotedblleft.vert quotedoubleprimeReversed.vert quoteleft.vert ";
name = OpeningVert;
notes = "【前アキ約物】クラス\012\012｟〈【｛「《〔『〖〚〘［（“〝‘\012\012※いずれも全角。";
},
{

glyphs = (
{
color = 4;
glyphname = .notdef;
lastChange = "2020-10-04 03:35:32 +0000";
layers = (
{
layerId = "3414DB1E-DCA6-4525-BBC7-543CEEA14C82";
paths = (
{
closed = 1;
nodes = (
"863 -120 LINE",
"863 880 LINE",
"137 880 LINE",
"137 -120 LINE"
);
},
{
closed = 1;
nodes = (
"172 844 LINE",
"828 844 LINE",
"828 -84 LINE",
"172 -84 LINE"
);
},
{
closed = 1;
nodes = (
"500 349 LINE",
"668 108 LINE",
"698 128 LINE",
"522 380 LINE",
"698 632 LINE",
"668 652 LINE",
"500 411 LINE",
"332 652 LINE",
"302 632 LINE",
"478 380 LINE",
"302 128 LINE",
"332 108 LINE"
);
}
);
width = 1000;
}
);
},
{
color = 4;
glyphname = "comma-han";
lastChange = "2020-10-04 02:12:09 +0000";
layers = (
{
layerId = "3414DB1E-DCA6-4525-BBC7-543CEEA14C82";
paths = (
{
closed = 1;
nodes = (
"294 -79 OFFCURVE",
"315 -47 OFFCURVE",
"315 -18 CURVE SMOOTH",
"315 48 OFFCURVE",
"209 132 OFFCURVE",
"86 160 CURVE",
"78 162 OFFCURVE",
"72 160 OFFCURVE",
"68 155 CURVE SMOOTH",
"64 150 OFFCURVE",
"66 145 OFFCURVE",
"75 139 CURVE SMOOTH",
"136 100 OFFCURVE",
"176 49 OFFCURVE",
"204 -26 CURVE",
"213 -58 OFFCURVE",
"237 -79 OFFCURVE",
"263 -79 CURVE SMOOTH"
);
}
);
width = 1000;
}
);
note = cid01390;
unicode = 3001;
},
{
color = 4;
glyphname = "period-han";
lastChange = "2020-10-04 02:12:09 +0000";
layers = (
{
layerId = "3414DB1E-DCA6-4525-BBC7-543CEEA14C82";
paths = (
{
closed = 1;
nodes = (
"262 -82 OFFCURVE",
"321 -23 OFFCURVE",
"321 49 CURVE SMOOTH",
"321 122 OFFCURVE",
"262 180 OFFCURVE",
"190 180 CURVE SMOOTH",
"117 180 OFFCURVE",
"59 122 OFFCURVE",
"59 49 CURVE SMOOTH",
"59 -23 OFFCURVE",
"117 -82 OFFCURVE",
"190 -82 CURVE SMOOTH"
);
},
{
closed = 1;
nodes = (
"136 -48 OFFCURVE",
"92 -4 OFFCURVE",
"92 49 CURVE SMOOTH",
"92 103 OFFCURVE",
"136 147 OFFCURVE",
"190 147 CURVE SMOOTH",
"243 147 OFFCURVE",
"287 103 OFFCURVE",
"287 49 CURVE SMOOTH",
"287 -4 OFFCURVE",
"243 -48 OFFCURVE",
"190 -48 CURVE SMOOTH"
);
}
);
width = 1000;
}
);
note = cid01391;
unicode = 3002;
},
{
color = 4;
glyphname = comma.full;
lastChange = "2020-10-04 02:12:09 +0000";
layers = (
{
layerId = "3414DB1E-DCA6-4525-BBC7-543CEEA14C82";
paths = (
{
closed = 1;
nodes = (
"78 -111 OFFCURVE",
"82 -109 OFFCURVE",
"85 -106 CURVE",
"162 -44 OFFCURVE",
"199 13 OFFCURVE",
"199 68 CURVE SMOOTH",
"199 118 OFFCURVE",
"170 152 OFFCURVE",
"127 152 CURVE SMOOTH",
"88 152 OFFCURVE",
"58 123 OFFCURVE",
"58 86 CURVE SMOOTH",
"58 61 OFFCURVE",
"72 39 OFFCURVE",
"94 26 CURVE SMOOTH",
"118 13 OFFCURVE",
"124 7 OFFCURVE",
"124 -7 CURVE SMOOTH",
"124 -31 OFFCURVE",
"110 -51 OFFCURVE",
"68 -85 CURVE SMOOTH",
"63 -89 OFFCURVE",
"61 -93 OFFCURVE",
"61 -97 CURVE SMOOTH",
"61 -100 OFFCURVE",
"62 -103 OFFCURVE",
"64 -106 CURVE",
"66 -109 OFFCURVE",
"69 -111 OFFCURVE",
"73 -111 CURVE SMOOTH"
);
}
);
width = 1000;
}
);
note = cid59003;
unicode = FF0C;
},
{
color = 4;
glyphname = period.full;
lastChange = "2020-10-04 02:12:09 +0000";
layers = (
{
layerId = "3414DB1E-DCA6-4525-BBC7-543CEEA14C82";
paths = (
{
closed = 1;
nodes = (
"168 -40 OFFCURVE",
"200 -8 OFFCURVE",
"200 31 CURVE SMOOTH",
"200 70 OFFCURVE",
"168 102 OFFCURVE",
"129 102 CURVE SMOOTH",
"90 102 OFFCURVE",
"58 70 OFFCURVE",
"58 31 CURVE SMOOTH",
"58 -8 OFFCURVE",
"90 -40 OFFCURVE",
"129 -40 CURVE SMOOTH"
);
}
);
width = 1000;
}
);
note = cid59005;
unicode = FF0E;
},
{
color = 4;
glyphname = whiteparenleft.full;
lastChange = "2020-10-04 02:12:09 +0000";
layers = (
{
layerId = "3414DB1E-DCA6-4525-BBC7-543CEEA14C82";
paths = (
{
closed = 1;
nodes = (
"927 -100 OFFCURVE",
"929 -99 OFFCURVE",
"930 -97 CURVE SMOOTH",
"933 -92 OFFCURVE",
"932 -87 OFFCURVE",
"925 -80 CURVE",
"748 114 OFFCURVE",
"731 308 OFFCURVE",
"731 380 CURVE SMOOTH",
"731 452 OFFCURVE",
"748 646 OFFCURVE",
"925 840 CURVE",
"930 845 OFFCURVE",
"932 848 OFFCURVE",
"932 852 CURVE SMOOTH",
"932 854 OFFCURVE",
"931 855 OFFCURVE",
"930 857 CURVE SMOOTH",
"927 862 OFFCURVE",
"921 861 OFFCURVE",
"913 854 CURVE SMOOTH",
"764 730 OFFCURVE",
"676 554 OFFCURVE",
"676 380 CURVE SMOOTH",
"676 206 OFFCURVE",
"764 30 OFFCURVE",
"913 -94 CURVE SMOOTH",
"918 -98 OFFCURVE",
"922 -100 OFFCURVE",
"925 -100 CURVE SMOOTH"
);
},
{
closed = 1;
nodes = (
"784 -100 OFFCURVE",
"786 -99 OFFCURVE",
"787 -97 CURVE SMOOTH",
"790 -92 OFFCURVE",
"789 -87 OFFCURVE",
"782 -80 CURVE",
"605 114 OFFCURVE",
"588 308 OFFCURVE",
"588 380 CURVE SMOOTH",
"588 452 OFFCURVE",
"605 646 OFFCURVE",
"782 840 CURVE",
"787 845 OFFCURVE",
"789 848 OFFCURVE",
"789 852 CURVE SMOOTH",
"789 854 OFFCURVE",
"788 855 OFFCURVE",
"787 857 CURVE SMOOTH",
"784 862 OFFCURVE",
"778 861 OFFCURVE",
"770 854 CURVE SMOOTH",
"621 730 OFFCURVE",
"533 554 OFFCURVE",
"533 380 CURVE SMOOTH",
"533 206 OFFCURVE",
"621 30 OFFCURVE",
"770 -94 CURVE SMOOTH",
"775 -98 OFFCURVE",
"779 -100 OFFCURVE",
"782 -100 CURVE SMOOTH"
);
}
);
width = 1000;
}
);
note = cid59085;
unicode = FF5F;
},
{
color = 4;
glyphname = anglebracketleft;
lastChange = "2020-10-04 02:12:09 +0000";
layers = (
{
layerId = "3414DB1E-DCA6-4525-BBC7-543CEEA14C82";
paths = (
{
closed = 1;
nodes = (
"932 -90 LINE",
"629 380 LINE",
"932 850 LINE",
"898 870 LINE",
"581 379 LINE",
"897 -110 LINE"
);
}
);
width = 1000;
}
);
note = cid01397;
unicode = 3008;
},
{
color = 4;
glyphname = blacklenticularbracketleft;
lastChange = "2020-10-04 02:12:09 +0000";
layers = (
{
layerId = "3414DB1E-DCA6-4525-BBC7-543CEEA14C82";
paths = (
{
closed = 1;
nodes = (
"942 -93 LINE",
"818 13 OFFCURVE",
"736 198 OFFCURVE",
"736 380 CURVE SMOOTH",
"736 562 OFFCURVE",
"818 747 OFFCURVE",
"942 853 CURVE",
"638 853 LINE",
"638 -93 LINE"
);
}
);
width = 1000;
}
);
note = cid01405;
unicode = 3010;
},
{
color = 4;
glyphname = braceleft.full;
lastChange = "2020-10-04 02:12:09 +0000";
layers = (
{
layerId = "3414DB1E-DCA6-4525-BBC7-543CEEA14C82";
paths = (
{
closed = 1;
nodes = (
"944 -102 OFFCURVE",
"950 -99 OFFCURVE",
"950 -95 CURVE SMOOTH",
"950 -91 OFFCURVE",
"946 -88 OFFCURVE",
"938 -87 CURVE SMOOTH",
"830 -77 OFFCURVE",
"784 -33 OFFCURVE",
"784 61 CURVE SMOOTH",
"784 87 OFFCURVE",
"788 118 OFFCURVE",
"795 156 CURVE SMOOTH",
"801 186 OFFCURVE",
"804 213 OFFCURVE",
"804 237 CURVE SMOOTH",
"804 319 OFFCURVE",
"766 364 OFFCURVE",
"686.008 380 CURVE",
"766 396 OFFCURVE",
"804 441 OFFCURVE",
"804 523 CURVE SMOOTH",
"804 547 OFFCURVE",
"801 574 OFFCURVE",
"795 604 CURVE SMOOTH",
"788 642 OFFCURVE",
"784 673 OFFCURVE",
"784 699 CURVE SMOOTH",
"784 793 OFFCURVE",
"830 837 OFFCURVE",
"938 847 CURVE SMOOTH",
"946 848 OFFCURVE",
"950 851 OFFCURVE",
"950 855 CURVE SMOOTH",
"950 858 OFFCURVE",
"946 861 OFFCURVE",
"940 861 CURVE SMOOTH",
"937 861 LINE",
"785 848 OFFCURVE",
"723 799 OFFCURVE",
"723 690 CURVE SMOOTH",
"723 663 OFFCURVE",
"726 633 OFFCURVE",
"733 602 CURVE SMOOTH",
"740 570 OFFCURVE",
"743 542 OFFCURVE",
"743 516 CURVE SMOOTH",
"743 428 OFFCURVE",
"700 387 OFFCURVE",
"605 387 CURVE SMOOTH",
"592 387 LINE SMOOTH",
"585 387 OFFCURVE",
"580 384 OFFCURVE",
"580 380 CURVE SMOOTH",
"580 376 OFFCURVE",
"585 373 OFFCURVE",
"592 373 CURVE SMOOTH",
"605 373 LINE SMOOTH",
"700 373 OFFCURVE",
"743 332 OFFCURVE",
"743 244 CURVE SMOOTH",
"743 218 OFFCURVE",
"740 190 OFFCURVE",
"733 158 CURVE SMOOTH",
"726 127 OFFCURVE",
"723 97 OFFCURVE",
"723 70 CURVE SMOOTH",
"723 -39 OFFCURVE",
"785 -88 OFFCURVE",
"937 -101 CURVE"
);
}
);
width = 1000;
}
);
note = cid59082;
unicode = FF5B;
},
{
color = 4;
glyphname = cornerbracketleft;
lastChange = "2020-10-04 02:12:09 +0000";
layers = (
{
layerId = "3414DB1E-DCA6-4525-BBC7-543CEEA14C82";
paths = (
{
closed = 1;
nodes = (
"683 -17 LINE",
"683 811 LINE",
"942 811 LINE",
"942 853 LINE",
"641 853 LINE",
"641 -17 LINE"
);
}
);
width = 1000;
}
);
note = cid01401;
unicode = 300C;
},
{
color = 4;
glyphname = dblanglebracketleft;
lastChange = "2020-10-04 02:12:09 +0000";
layers = (
{
layerId = "3414DB1E-DCA6-4525-BBC7-543CEEA14C82";
paths = (
{
closed = 1;
nodes = (
"960 -90 LINE",
"723 380 LINE",
"960 850 LINE",
"924 866 LINE",
"678 380 LINE",
"924 -106 LINE"
);
},
{
closed = 1;
nodes = (
"838 -90 LINE",
"601 380 LINE",
"838 850 LINE",
"802 866 LINE",
"556 380 LINE",
"802 -106 LINE"
);
}
);
width = 1000;
}
);
note = cid01399;
unicode = 300A;
},
{
color = 4;
glyphname = tortoiseshellbracketleft;
lastChange = "2020-10-04 02:12:09 +0000";
layers = (
{
layerId = "3414DB1E-DCA6-4525-BBC7-543CEEA14C82";
paths = (
{
closed = 1;
nodes = (
"941 -68 LINE",
"683 77 LINE",
"683 681 LINE",
"943 828 LINE",
"922 864 LINE",
"641 706 LINE",
"641 52 LINE",
"920 -104 LINE"
);
}
);
width = 1000;
}
);
note = cid01409;
unicode = 3014;
},
{
color = 4;
glyphname = whitecornerbracketleft;
lastChange = "2020-10-04 02:12:09 +0000";
layers = (
{
layerId = "3414DB1E-DCA6-4525-BBC7-543CEEA14C82";
paths = (
{
closed = 1;
nodes = (
"741 -17 LINE",
"741 712 LINE",
"942 712 LINE",
"942 853 LINE",
"600 853 LINE",
"600 -17 LINE"
);
},
{
closed = 1;
nodes = (
"638 815 LINE",
"904 815 LINE",
"904 750 LINE",
"703 750 LINE",
"703 21 LINE",
"638 21 LINE"
);
}
);
width = 1000;
}
);
note = cid01403;
unicode = 300E;
},
{
color = 4;
glyphname = whitelenticularbracketleft;
lastChange = "2020-10-04 02:12:09 +0000";
layers = (
{
layerId = "3414DB1E-DCA6-4525-BBC7-543CEEA14C82";
paths = (
{
closed = 1;
nodes = (
"942 -93 LINE",
"818 13 OFFCURVE",
"736 198 OFFCURVE",
"736 380 CURVE SMOOTH",
"736 562 OFFCURVE",
"818 747 OFFCURVE",
"942 853 CURVE",
"600 853 LINE",
"600 -93 LINE"
);
},
{
closed = 1;
nodes = (
"638 815 LINE",
"852 815 LINE",
"757 700 OFFCURVE",
"698 538 OFFCURVE",
"698 380 CURVE SMOOTH",
"698 222 OFFCURVE",
"757 60 OFFCURVE",
"852 -55 CURVE",
"638 -55 LINE"
);
}
);
width = 1000;
}
);
note = cid01411;
unicode = 3016;
},
{
color = 4;
glyphname = whitesquarebracketleft;
lastChange = "2020-10-04 02:12:09 +0000";
layers = (
{
layerId = "3414DB1E-DCA6-4525-BBC7-543CEEA14C82";
paths = (
{
closed = 1;
nodes = (
"943 -93 LINE",
"943 -55 LINE",
"741 -55 LINE",
"741 815 LINE",
"942 815 LINE",
"942 853 LINE",
"600 853 LINE",
"600 -93 LINE"
);
},
{
closed = 1;
nodes = (
"638 815 LINE",
"703 815 LINE",
"703 -55 LINE",
"638 -55 LINE"
);
}
);
width = 1000;
}
);
note = cid01415;
unicode = 301A;
},
{
color = 4;
glyphname = whitetortoiseshellbracketleft;
lastChange = "2020-10-04 02:12:09 +0000";
layers = (
{
layerId = "3414DB1E-DCA6-4525-BBC7-543CEEA14C82";
paths = (
{
closed = 1;
nodes = (
"943 43 LINE",
"741 141 LINE",
"741 619 LINE",
"943 717 LINE",
"943 866 LINE",
"600 707 LINE",
"600 53 LINE",
"943 -106 LINE"
);
},
{
closed = 1;
nodes = (
"638 76 LINE",
"638 684 LINE",
"905 813 LINE",
"905 735 LINE",
"703 641 LINE",
"703 119 LINE",
"905 25 LINE",
"905 -53 LINE"
);
}
);
width = 1000;
}
);
note = cid01413;
unicode = 3018;
},
{
color = 4;
glyphname = bracketleft.full;
lastChange = "2020-10-04 02:12:09 +0000";
layers = (
{
layerId = "3414DB1E-DCA6-4525-BBC7-543CEEA14C82";
paths = (
{
closed = 1;
nodes = (
"683 -93 LINE",
"683 853 LINE",
"641 853 LINE",
"641 -93 LINE"
);
},
{
closed = 1;
nodes = (
"942 -93 LINE",
"942 -51 LINE",
"641 -51 LINE",
"641 -93 LINE"
);
},
{
closed = 1;
nodes = (
"954 811 LINE",
"954 853 LINE",
"641 853 LINE",
"641 811 LINE"
);
}
);
width = 1000;
}
);
note = cid59050;
unicode = FF3B;
},
{
color = 4;
glyphname = parenleft.full;
lastChange = "2020-10-04 02:12:09 +0000";
layers = (
{
layerId = "3414DB1E-DCA6-4525-BBC7-543CEEA14C82";
paths = (
{
closed = 1;
nodes = (
"927 -100 OFFCURVE",
"929 -99 OFFCURVE",
"930 -97 CURVE SMOOTH",
"933 -92 OFFCURVE",
"932 -87 OFFCURVE",
"925 -80 CURVE",
"748 114 OFFCURVE",
"731 308 OFFCURVE",
"731 380 CURVE SMOOTH",
"731 452 OFFCURVE",
"748 646 OFFCURVE",
"925 840 CURVE",
"930 845 OFFCURVE",
"932 848 OFFCURVE",
"932 852 CURVE SMOOTH",
"932 854 OFFCURVE",
"931 855 OFFCURVE",
"930 857 CURVE SMOOTH",
"927 862 OFFCURVE",
"921 861 OFFCURVE",
"913 854 CURVE SMOOTH",
"764 730 OFFCURVE",
"676 554 OFFCURVE",
"676 380 CURVE SMOOTH",
"676 206 OFFCURVE",
"764 30 OFFCURVE",
"913 -94 CURVE SMOOTH",
"918 -98 OFFCURVE",
"922 -100 OFFCURVE",
"925 -100 CURVE SMOOTH"
);
}
);
width = 1000;
}
);
note = cid58999;
unicode = FF08;
},
{
color = 4;
glyphname = quotedoubleprimeReversed;
lastChange = "2020-10-04 02:12:09 +0000";
layers = (
{
layerId = "3414DB1E-DCA6-4525-BBC7-543CEEA14C82";
paths = (
{
closed = 1;
nodes = (
"798 568 LINE",
"662 825 LINE SMOOTH",
"656 835 OFFCURVE",
"647 841 OFFCURVE",
"634 841 CURVE SMOOTH",
"611 841 OFFCURVE",
"590 824 OFFCURVE",
"590 806 CURVE SMOOTH",
"590 799 OFFCURVE",
"593 791 OFFCURVE",
"598 784 CURVE SMOOTH",
"780 554 LINE"
);
},
{
closed = 1;
nodes = (
"959 569 LINE",
"842 824 LINE",
"836 835 OFFCURVE",
"826 840 OFFCURVE",
"813 840 CURVE SMOOTH",
"789 840 OFFCURVE",
"769 824 OFFCURVE",
"769 806 CURVE SMOOTH",
"769 799 OFFCURVE",
"772 791 OFFCURVE",
"776 785 CURVE SMOOTH",
"938 556 LINE"
);
}
);
width = 1000;
}
);
note = cid01418;
unicode = 301D;
},
{
color = 4;
glyphname = "dot-kata";
lastChange = "2020-10-04 02:12:09 +0000";
layers = (
{
layerId = "3414DB1E-DCA6-4525-BBC7-543CEEA14C82";
paths = (
{
closed = 1;
nodes = (
"557 285 OFFCURVE",
"595 328 OFFCURVE",
"595 380 CURVE SMOOTH",
"595 432 OFFCURVE",
"552 475 OFFCURVE",
"500 475 CURVE SMOOTH",
"448 475 OFFCURVE",
"405 432 OFFCURVE",
"405 380 CURVE SMOOTH",
"405 328 OFFCURVE",
"448 285 OFFCURVE",
"500 285 CURVE SMOOTH"
);
}
);
width = 1000;
}
);
note = cid01637;
unicode = 30FB;
},
{
color = 4;
glyphname = quoteleft.vert;
lastChange = "2020-10-04 02:12:09 +0000";
layers = (
{
layerId = "3414DB1E-DCA6-4525-BBC7-543CEEA14C82";
paths = (
{
closed = 1;
nodes = (
"911 214 OFFCURVE",
"902 208 OFFCURVE",
"896 198 CURVE SMOOTH",
"760 -59 LINE",
"778 -73 LINE",
"960 157 LINE SMOOTH",
"965 164 OFFCURVE",
"968 172 OFFCURVE",
"968 179 CURVE SMOOTH",
"968 197 OFFCURVE",
"947 214 OFFCURVE",
"924 214 CURVE SMOOTH"
);
}
);
width = 1000;
}
);
note = cid00718;
},
